<?xml version="1.0" standalone="no"?>
<!DOCTYPE svg PUBLIC "-//W3C//DTD SVG 20010904//EN"
 "http://www.w3.org/TR/2001/REC-SVG-20010904/DTD/svg10.dtd">
<svg version="1.0" xmlns="http://www.w3.org/2000/svg"
 width="320.000000pt" height="320.000000pt" viewBox="0 0 320.000000 320.000000"
 preserveAspectRatio="xMidYMid meet">
<metadata>
Created by potrace 1.11, written by Peter Selinger 2001-2013
</metadata>
<g transform="translate(0.000000,320.000000) scale(0.100000,-0.100000)"
fill="#000000" stroke="none">
<path d="M1202 3137 c-42 -42 -52 -59 -52 -86 0 -29 -2 -33 -22 -27 -13 3 -80
21 -150 40 l-126 34 -51 -52 c-40 -41 -51 -59 -51 -84 0 -35 -9 -38 -59 -21
-32 11 -35 10 -87 -42 -44 -44 -54 -59 -54 -87 0 -26 -4 -33 -14 -29 -8 3 -31
9 -50 13 -33 6 -40 2 -86 -42 l-50 -49 0 -237 0 -237 -47 14 -48 15 -53 -52
-52 -52 2 -701 3 -700 97 -26 97 -26 50 51 c40 41 51 59 51 84 0 35 6 37 60
22 33 -10 36 -8 87 42 43 43 53 59 53 86 0 31 2 34 23 28 12 -4 34 -9 50 -12
l27 -6 0 -102 0 -102 98 -25 97 -25 3 -102 c1 -56 5 -102 7 -102 3 0 88 -22
189 -50 101 -27 190 -50 196 -50 6 0 34 22 61 49 l49 49 0 135 0 136 68 -19
c37 -10 104 -28 149 -40 l83 -22 2 -201 3 -201 30 -8 c79 -21 304 -81 332 -88
28 -7 36 -3 82 44 40 41 51 59 51 84 0 37 -3 35 54 21 l44 -11 51 52 c41 42
51 58 51 86 0 32 2 34 28 28 75 -18 72 -14 72 -122 l0 -99 58 -16 c31 -8 76
-20 100 -27 l42 -11 0 -99 0 -99 53 -15 c28 -8 73 -20 100 -27 l47 -11 50 52
50 52 0 699 0 698 -42 11 c-24 7 -69 19 -100 27 l-58 16 0 301 0 301 -100 25
-100 24 0 101 0 102 -67 17 c-38 10 -83 22 -100 28 l-33 10 0 98 c0 85 -2 99
-17 104 -10 3 -88 24 -173 46 -85 23 -166 45 -180 49 -24 7 -25 11 -28 109 -1
56 -5 102 -9 102 -4 0 -726 192 -773 205 -9 3 -37 -16 -68 -48z"/>
</g>
</svg>
